<svg xmlns="http://www.w3.org/2000/svg" viewBox="0 0 30 20" aria-hidden="true">
  <rect width="30" height="20" fill="#de2910"/>
  <g fill="#ffde00">
    <path d="M6.5 4.8l0.62 1.9h2l-1.62 1.18 0.62 1.9-1.62-1.18-1.62 1.18 0.62-1.9-1.62-1.18h2z"/>
    <path d="M10.8 2.6l0.28 0.85h0.9l-0.73 0.53 0.28 0.85-0.73-0.53-0.73 0.53 0.28-0.85-0.73-0.53h0.9z"/>
    <path d="M12.4 5.2l0.28 0.85h0.9l-0.73 0.53 0.28 0.85-0.73-0.53-0.73 0.53 0.28-0.85-0.73-0.53h0.9z"/>
    <path d="M12.2 8l0.28 0.85h0.9l-0.73 0.53 0.28 0.85-0.73-0.53-0.73 0.53 0.28-0.85-0.73-0.53h0.9z"/>
    <path d="M9.8 8.8l0.28 0.85h0.9l-0.73 0.53 0.28 0.85-0.73-0.53-0.73 0.53 0.28-0.85-0.73-0.53h0.9z"/>
  </g>
</svg>
